<?xml version="1.0" encoding="utf-8"?>
<!-- Generator: Adobe Illustrator 27.8.1, SVG Export Plug-In . SVG Version: 6.00 Build 0)  -->
<svg version="1.1" id="Ebene_1" xmlns="http://www.w3.org/2000/svg" xmlns:xlink="http://www.w3.org/1999/xlink" x="0px" y="0px"
	 viewBox="0 0 711.4 140.9" style="enable-background:new 0 0 711.4 140.9;" xml:space="preserve">
<style type="text/css">
	.st0{fill-rule:evenodd;clip-rule:evenodd;fill:#BD1218;}
	.st1{fill:#BD1218;}
</style>
<g>
	<g>
		<polygon class="st0" points="80.9,70.4 80.9,35.9 55.4,35.9 55.4,125.2 80.9,125.2 80.9,88.6 117.8,88.6 117.8,125.2 143.3,125.2 
			143.3,35.9 117.8,35.9 117.8,70.4 		"/>
		<path class="st0" d="M229.5,35.9v47c0,11.6-0.9,24.3-17.3,24.3s-17.3-12.7-17.3-24.3v-47h-25.5v50.2c0,11.5,0.5,22.8,10.3,31.5
			c8.2,7.3,21.1,9.9,32.6,9.9c11.5,0,24.4-2.6,32.6-9.9c9.8-8.6,10.3-20,10.3-31.5V35.9H229.5z"/>
		<path class="st0" d="M331.9,88.6c13.9-2.2,21.5-12.9,21.5-25.2c0-19.1-14.7-27.5-34.1-27.5h-38.2v89.3h25.5V90.8h0.3l24.1,34.3
			h31.8L331.9,88.6L331.9,88.6z M306.6,53.7L306.6,53.7h2.5c8.3,0,17.7,1.4,17.7,11.1s-9.4,11.1-17.7,11.1h-2.5V53.7z"/>
		<polygon class="st0" points="379.5,125.2 405,125.2 405,70.5 405.3,70.5 452,125.2 477.6,125.2 477.6,35.9 452,35.9 452,90.5 
			451.8,90.5 405,35.9 379.5,35.9 		"/>
		<polygon class="st0" points="560,55.6 560,35.9 504.1,35.9 504.1,125.2 560,125.2 560,105.5 529.7,105.5 529.7,90.1 558.4,90.1 
			558.4,70.5 529.7,70.5 529.7,55.6 		"/>
		<path class="st0" d="M636.5,88.6c13.9-2.2,21.5-12.9,21.5-25.2c0-19.1-14.7-27.5-34.1-27.5h-38.2v89.3h25.5V90.8h0.3l24.1,34.3
			h31.8L636.5,88.6L636.5,88.6z M611.2,53.7L611.2,53.7h2.5c8.3,0,17.7,1.4,17.7,11.1s-9.4,11.1-17.7,11.1h-2.5V53.7z"/>
	</g>
	<g>
		<rect x="198.9" y="12.8" class="st1" width="11.1" height="50.2"/>
		<rect x="214.2" y="12.8" class="st1" width="11.1" height="50.2"/>
	</g>
</g>
</svg>
